<?xml version="1.0" standalone="no"?>
<!DOCTYPE svg PUBLIC "-//W3C//DTD SVG 20010904//EN"
 "http://www.w3.org/TR/2001/REC-SVG-20010904/DTD/svg10.dtd">
<svg version="1.0" xmlns="http://www.w3.org/2000/svg"
 width="200.000000pt" height="200.000000pt" viewBox="0 0 200.000000 200.000000"
 preserveAspectRatio="xMidYMid meet">
<metadata>
Created by potrace 1.11, written by Peter Selinger 2001-2013
</metadata>
<g transform="translate(0.000000,200.000000) scale(0.100000,-0.100000)"
fill="#000000" stroke="none">
<path d="M461 1811 c-6 -39 -11 -105 -11 -148 0 -149 41 -241 157 -354 41 -41
82 -87 90 -102 14 -27 13 -28 -5 -23 -11 4 -50 8 -87 11 -88 5 -157 -20 -222
-80 l-48 -44 41 -1 c108 -1 225 -61 319 -163 47 -51 64 -65 59 -47 -14 47 -11
154 6 210 23 74 40 106 91 164 166 189 447 195 621 14 50 -52 100 -146 114
-213 l7 -40 13 65 c24 118 11 253 -33 349 -15 31 -43 74 -78 119 -18 23 -130
107 -170 128 -81 43 -295 103 -295 83 0 -5 14 -24 31 -42 71 -74 105 -176 80
-241 l-11 -28 -38 37 c-52 52 -114 80 -260 121 -142 40 -215 77 -263 131 -31
36 -79 126 -79 151 0 6 -4 12 -9 12 -4 0 -13 -31 -20 -69z"/>
<path d="M1100 1315 c-132 -28 -235 -120 -279 -249 -57 -165 30 -361 195 -442
53 -26 69 -29 154 -29 81 0 103 4 150 26 100 47 164 118 199 223 88 263 -149
529 -419 471z m170 -127 c197 -85 204 -359 12 -455 -50 -25 -69 -29 -120 -27
-96 5 -176 57 -219 143 -24 49 -24 173 0 218 33 61 101 118 155 129 8 1 16 5
19 7 10 11 119 0 153 -15z"/>
<path d="M1101 1159 c-41 -16 -81 -50 -81 -67 0 -17 67 -62 93 -62 29 0 47 35
44 86 -3 53 -13 61 -56 43z"/>
<path d="M1207 1153 c-4 -3 -7 -27 -7 -53 0 -80 42 -98 113 -48 38 27 34 44
-20 78 -46 29 -73 37 -86 23z"/>
<path d="M970 1025 c-17 -20 -15 -115 3 -133 13 -12 21 -11 61 13 38 22 46 32
46 56 0 23 -8 33 -43 54 -51 29 -51 29 -67 10z"/>
<path d="M1307 1009 c-41 -25 -47 -33 -44 -57 3 -20 15 -33 50 -52 58 -31 70
-21 70 55 0 81 -15 92 -76 54z"/>
<path d="M1153 1023 c-26 -5 -39 -20 -48 -53 -12 -51 58 -101 101 -72 21 13
34 52 28 77 -6 23 -40 57 -54 54 -3 -1 -15 -4 -27 -6z m44 -45 c17 -14 0 -51
-25 -55 -32 -4 -49 33 -26 58 16 18 24 17 51 -3z"/>
<path d="M1057 862 c-26 -14 -47 -31 -47 -37 0 -27 99 -88 128 -78 7 3 12 24
12 58 0 44 -4 55 -23 68 -22 14 -27 13 -70 -11z"/>
<path d="M1225 878 c-32 -18 -33 -23 -26 -115 3 -39 140 28 141 69 0 5 -84 58
-92 58 -2 0 -12 -6 -23 -12z"/>
<path d="M1570 595 l-35 -36 24 -41 c32 -56 30 -101 -7 -179 -35 -74 -64 -104
-88 -95 -13 5 -15 16 -10 64 14 145 18 259 10 264 -5 3 -28 1 -50 -4 l-42 -9
3 -77 c5 -127 -7 -191 -39 -218 -53 -46 -58 -37 -53 99 4 127 -5 182 -33 197
-52 28 -122 13 -167 -36 -13 -15 -25 -25 -26 -23 -1 2 -7 13 -13 24 -35 66
-210 78 -320 23 -77 -38 -93 -127 -29 -156 40 -19 50 18 13 48 l-23 18 21 29
c37 50 166 79 224 50 29 -15 45 -54 37 -89 -8 -31 -41 -70 -59 -67 -28 3 -38
-2 -38 -22 0 -12 8 -23 20 -26 20 -5 28 -25 55 -133 20 -78 37 -100 81 -100
66 0 81 19 40 51 -13 10 -39 54 -56 96 -18 43 -37 84 -44 92 -8 11 -8 15 3 19
8 3 30 19 50 37 l37 33 16 -28 c11 -19 33 -34 66 -46 l49 -18 0 -63 c0 -67 15
-96 53 -106 23 -6 90 26 103 48 12 22 25 18 29 -7 4 -31 43 -49 79 -36 43 15
126 112 163 192 56 118 65 205 25 252 -18 22 -32 17 -69 -21z m-392 -77 c21
-26 19 -138 -3 -138 -26 0 -63 22 -75 46 -16 29 1 77 33 92 29 14 33 14 45 0z"/>
<path d="M799 509 c-6 -3 -12 -31 -13 -60 -1 -30 -15 -99 -29 -154 -15 -54
-27 -105 -27 -113 0 -9 13 -12 44 -11 41 2 45 5 50 33 11 58 14 71 40 178 34
142 35 139 -14 136 -22 -1 -45 -5 -51 -9z"/>
</g>
</svg>
